<svg id="Layer_1" data-name="Layer 1" xmlns="http://www.w3.org/2000/svg" viewBox="0 0 512 512"><path d="M445.6,150.34H67.5a26.84,26.84,0,0,1-26.83-26.83h0A26.82,26.82,0,0,1,67.5,96.69H445.6a26.8,26.8,0,0,1,26.82,26.82h0a26.82,26.82,0,0,1-26.82,26.83Z"/><path d="M445.6,285.46H67.5a26.84,26.84,0,0,1-26.83-26.82h0A26.84,26.84,0,0,1,67.5,231.81H445.6a26.82,26.82,0,0,1,26.82,26.83h0a26.82,26.82,0,0,1-26.82,26.82Z"/><path d="M445.6,420.58H67.5a26.82,26.82,0,0,1-26.83-26.82h0A26.84,26.84,0,0,1,67.5,366.93H445.6a26.82,26.82,0,0,1,26.82,26.83h0a26.8,26.8,0,0,1-26.82,26.82Z"/></svg>