<svg xmlns="http://www.w3.org/2000/svg" viewBox="0 0 512 512"><path d="M182.63,105.7c.07.78.18,1.53.27,2.3.21,1.71.46,3.4.77,5.07.15.81.3,1.61.48,2.41.39,1.81.86,3.58,1.37,5.34.16.55.29,1.11.46,1.66.68,2.16,1.47,4.28,2.33,6.36.34.84.74,1.65,1.11,2.48.58,1.28,1.18,2.54,1.82,3.78.49,1,1,1.88,1.52,2.81s1.26,2.11,1.91,3.14,1.18,1.9,1.81,2.82c.76,1.1,1.59,2.15,2.4,3.21,1.26,1.64,2.57,3.21,3.94,4.74.54.6,1.07,1.21,1.63,1.79,1,1.06,2.06,2.09,3.13,3.1.48.45,1,.89,1.47,1.33a80.56,80.56,0,0,0,13.14,9.59l.31.18c1.53.89,3.1,1.7,4.7,2.49l1,.5a80.29,80.29,0,0,0,11.92,4.55h0c2.34.68,4.71,1.27,7.13,1.74.5.1,1,.14,1.53.23,1.95.34,3.9.67,5.9.86,2.5.25,5,.38,7.6.39h.22l.25,0a75.88,75.88,0,0,0,7.58-.38c2-.19,4-.52,5.91-.86.51-.09,1-.14,1.52-.23a79.07,79.07,0,0,0,19-6.3l1-.49c1.59-.78,3.17-1.6,4.7-2.49l.29-.17A81.46,81.46,0,0,0,316,158c.49-.44,1-.88,1.46-1.33q1.61-1.52,3.14-3.1c.55-.58,1.07-1.18,1.61-1.78,1.36-1.52,2.67-3.08,3.92-4.7.82-1.08,1.66-2.15,2.43-3.26.63-.91,1.2-1.86,1.8-2.8s1.31-2.1,1.92-3.17,1-1.85,1.52-2.79q1-1.87,1.83-3.81c.37-.82.76-1.62,1.1-2.45.86-2.09,1.65-4.22,2.34-6.39.16-.52.28-1,.43-1.57q.8-2.69,1.4-5.43c.17-.78.32-1.57.46-2.36.32-1.7.58-3.41.79-5.14.09-.74.19-1.48.26-2.24.22-2.44.37-4.91.37-7.42A80.21,80.21,0,0,0,262.53,18h0A80.49,80.49,0,0,0,182.26,98.3v.07C182.26,100.85,182.41,103.29,182.63,105.7Z"/><path d="M373.56,253.34c0-37.63-19.15-69.35-54.21-78a95.17,95.17,0,0,1-113.63,0c-33.73,8.32-52.14,38-54,73.84-.05.69-.21,1.36-.21,2.07l-7.09,72.47A25.7,25.7,0,0,0,170,349.36a25.34,25.34,0,0,0,11.59-2.9v110a34.43,34.43,0,1,0,68.86,0V358h0s0-.1,0-.16a12,12,0,1,1,24.05,0c0,.06,0,.11,0,.16h0v98.39a34.44,34.44,0,1,0,68.87,0v-110a25.33,25.33,0,0,0,11.58,2.9,25.7,25.7,0,0,0,25.63-25.62l-7.09-69.87c0-.06,0-.12,0-.18S373.56,253.46,373.56,253.34Z"/></svg>