<svg xmlns="http://www.w3.org/2000/svg" viewBox="0 0 512 512"><path d="M102.5,175.57c0-5.22.27-10.39.78-15.48l-30.2,1.2c-5.94.24-10.33,6-9.33,12.34L107.4,448.12c1.17,7.35,8.81,11.14,14.75,7.28,15.71-10.23,44.4-26.29,73.14-29,18.7-1.8,37.72,4.13,49.38,8.65V328.52C165.31,322.67,102.5,256.39,102.5,175.57Z"/><path d="M438.94,161.29l-30.19-1.2c.51,5.09.78,10.26.78,15.48,0,80.82-62.82,147.1-142.17,153V435c11.66-4.52,30.68-10.45,49.37-8.65,28.75,2.75,57.43,18.81,73.14,29,5.94,3.86,13.59.07,14.75-7.28l43.65-274.49C449.28,167.33,444.89,161.53,438.94,161.29Z"/><path d="M361.63,241.52a124.72,124.72,0,1,0-171.94,39.3A124.86,124.86,0,0,0,361.63,241.52ZM255,236.93l-40.55,28.35a15,15,0,0,1-7.54,2.76,11.93,11.93,0,0,1-7.2-1.75l-1.26-.79a12,12,0,0,1-4.71-5.73,15.08,15.08,0,0,1-.79-8L200.86,203a18.1,18.1,0,0,1,1.24-3.25l55.27,34.71A18.47,18.47,0,0,1,255,236.93Zm73.3-114.14-.06.09-.33.54L264.7,224l-56.46-35.46L271.43,88l.34-.53.05-.1a23.14,23.14,0,0,1,32.23-7.43L321,90.53A23.14,23.14,0,0,1,328.28,122.79Z"/></svg>