<svg id="Layer_1" data-name="Layer 1" xmlns="http://www.w3.org/2000/svg" viewBox="0 0 512 512"><defs><style>.cls-1{fill:#fff;}.cls-2{fill:#f40606;}</style></defs><rect class="cls-1" x="53.9" y="259.28" width="348.17" height="55.27"/><path class="cls-2" d="M346.57,437.42c-39.64-.92-59.74-10.37-59.74-28.08V123.93c0-6.9.31-14.32.92-22.06.48-6,1.14-13,2-20.89a5,5,0,0,0-1.13-3.72,4.92,4.92,0,0,0-3.44-1.77l-77.06-5.8h-.38a5,5,0,0,0-4.44,2.77c-21.23,43-58.35,66.22-110.31,69.15a5,5,0,0,0-4.75,5.23L90,180.1a5,5,0,0,0,5,4.71h67.48a9,9,0,0,1,9,9V409.35c0,18.1-23.13,27.29-70.7,28.09a5,5,0,0,0-4.88,5v36.1a5,5,0,0,0,5,5H346.47a5,5,0,0,0,5-5V442.39A5,5,0,0,0,346.57,437.42Z"/><path class="cls-2" d="M473.17,149a5.47,5.47,0,0,0-3.51-3l-9.13-2.5a5.46,5.46,0,0,0-6,2.44c-6.33,9.87-19.71,10.89-50.83,10.78,21-20.72,31.19-31.24,39.43-42.32C452.3,102.07,457,89.11,457,75.9c0-16.09-5.59-29.59-16.62-40.13S415.15,20,398.17,20a55.56,55.56,0,0,0-34.58,11.56c-9.35,7.17-18.51,18.64-27.24,34.08a5.83,5.83,0,0,0,1.71,7.65l11.83,8.11a5.26,5.26,0,0,0,4.09.82,5.61,5.61,0,0,0,3.56-2.56c3.93-6.46,8.14-11.41,12.52-14.71a24.09,24.09,0,0,1,14.88-5.29A20,20,0,0,1,400.36,66c4.09,4.39,6.08,9.91,6.08,16.88,0,12-6.21,26.72-18.47,43.77s-29.47,34.84-51.33,53.1a5.88,5.88,0,0,0-1.66,6.58l4.37,11.2a5.46,5.46,0,0,0,5.08,3.54h.38c44-3.14,68.1-3.15,112.22,0a5.36,5.36,0,0,0,3.92-1.34,5.82,5.82,0,0,0,1.93-4c.76-13.33,2.81-25.52,10.29-41.69A5.89,5.89,0,0,0,473.17,149Z"/></svg>