<svg xmlns="http://www.w3.org/2000/svg" viewBox="0 0 512 512"><path fill="#fff" d="M217.69,207.75a58.16,58.16,0,0,0,8.72,14.36c1.18,1.44,2.44,2.82,3.75,4.13a58.81,58.81,0,0,0,8.62,7.11c1.54,1,3.14,2,4.79,2.91a57.38,57.38,0,0,0,6.52,3A58.11,58.11,0,0,0,283,242.1a57.92,57.92,0,0,0,20.8-8.75A58.2,58.2,0,0,0,259.58,128.1q-2.83.59-5.58,1.43a58.6,58.6,0,0,0-10.43,4.41q-2.48,1.35-4.79,2.91a59.45,59.45,0,0,0-8.62,7.11,58.29,58.29,0,0,0-12.47,63.79Zm53.61-52.59a29.94,29.94,0,1,1-29.94,29.94A30,30,0,0,1,271.3,155.16Z"/><path fill="#fff" d="M135.27,207c.11,1.87.12,3.76.28,5.61.12,1.29.3,2.56.45,3.84q.52,4.29,1.3,8.49c.25,1.36.5,2.71.79,4,.66,3,1.44,6,2.3,8.95.27.92.48,1.86.77,2.77,1.15,3.63,2.46,7.18,3.9,10.66.59,1.41,1.24,2.78,1.87,4.16,1,2.14,2,4.25,3,6.33q1.25,2.39,2.56,4.71c1,1.79,2.1,3.53,3.2,5.27,1,1.58,2,3.18,3,4.72,1.28,1.84,2.65,3.6,4,5.38q3.15,4.11,6.6,7.94c.91,1,1.79,2,2.73,3,1.69,1.79,3.44,3.5,5.23,5.19.81.76,1.64,1.5,2.47,2.24a135.1,135.1,0,0,0,22,16.06l.52.31c2.57,1.48,5.2,2.85,7.87,4.16q.85.43,1.74.84a133.12,133.12,0,0,0,19.95,7.63h0c3.91,1.13,7.88,2.12,11.94,2.91.84.16,1.72.24,2.57.39,3.27.56,6.54,1.12,9.87,1.44q6.3.63,12.74.64l.38,0,.41,0q6.44,0,12.7-.64c3.36-.32,6.63-.88,9.91-1.45.84-.14,1.7-.22,2.54-.38a133.37,133.37,0,0,0,31.92-10.55l1.71-.82c2.68-1.32,5.32-2.69,7.89-4.17l.48-.3A134.36,134.36,0,0,0,359,300.26c.82-.73,1.64-1.47,2.45-2.22q2.7-2.54,5.25-5.2c.93-1,1.81-2,2.7-3,2.29-2.55,4.48-5.17,6.57-7.89,1.39-1.8,2.78-3.59,4.08-5.46,1.05-1.52,2-3.11,3-4.68,1.11-1.75,2.2-3.51,3.23-5.32.88-1.54,1.72-3.1,2.54-4.68,1.08-2.09,2.09-4.22,3.07-6.37.61-1.37,1.27-2.72,1.84-4.11,1.45-3.5,2.77-7.06,3.92-10.7.27-.87.47-1.76.73-2.64.88-3,1.67-6,2.33-9.09.29-1.31.54-2.63.78-4q.8-4.25,1.31-8.6c.16-1.25.33-2.49.44-3.75.17-1.86.18-3.76.29-5.64.13-2.26.34-4.5.34-6.8q0-5.22-.39-10.35A133.72,133.72,0,0,0,380.94,125q-2.71-4-5.71-7.84a136,136,0,0,0-13-14.32Q358.7,99.48,355,96.4a134.12,134.12,0,0,0-157.26-9.84q-4.46,2.82-8.66,6A134.24,134.24,0,0,0,135.17,192c-.16,2.71-.24,5.45-.24,8.2,0,0,0,.08,0,.13C134.94,202.56,135.15,204.76,135.27,207Zm15.66-32c.61-.82,1.23-1.63,1.85-2.44,2.55-3.29,5.18-6.52,7.95-9.59l.08-.08c2.85-3.15,5.85-6.13,8.92-9,.65-.62,1.32-1.22,2-1.82a152.36,152.36,0,0,1,20-15.43l1.87-1.18a145.63,145.63,0,0,1,22.78-11.59c.58-.24,1.17-.46,1.76-.69,4-1.53,8-2.94,12.13-4.12a.5.5,0,0,1-.12.08l.15,0a140,140,0,0,1,38.5-5.41,138.12,138.12,0,0,1,13.86.74l1.8.19c4.59.52,9.13,1.22,13.59,2.18q4.68,1,9.26,2.31l.11,0h0l-.05,0h0a143.37,143.37,0,0,1,31.33,13.22l.58.32a151.49,151.49,0,0,1,13.47,8.77l1.31.95c4.15,3.09,8.14,6.41,12,9.91l1.5,1.37a163.67,163.67,0,0,1,13.1,13.85c.37.44.75.86,1.11,1.3a165.58,165.58,0,0,1,11.93,16.43l.16.24c-.54.84-1.12,1.64-1.66,2.47-1.6,2.43-3.24,4.82-5,7.15-1,1.36-2,2.69-3.06,4-1.76,2.25-3.59,4.44-5.45,6.59-1,1.17-2.05,2.35-3.11,3.5q-3.42,3.69-7.06,7.15c-1.06,1-2.15,2-3.24,3-2.29,2.06-4.63,4.06-7,6-.74.59-1.45,1.21-2.19,1.79-3.09,2.37-6.28,4.59-9.52,6.71-1,.63-1.94,1.23-2.92,1.83q-4.37,2.71-8.9,5.12c-.58.31-1.15.65-1.74,1-3.61,1.84-7.31,3.52-11.07,5-.82.34-1.65.64-2.47,1q-5.08,2-10.3,3.55c-.61.18-1.2.4-1.81.57-2.46.7-5,1.31-7.46,1.88-.66.15-1.29.33-1.94.47-1.07.23-2.16.4-3.24.59.26-.05.51-.13.77-.18-1.06.2-2.11.39-3.18.57.25,0,.52-.05.77-.1l-1.41.26c-1.16.19-2.31.43-3.48.6s-2.44.25-3.66.39c-1.61.19-3.22.38-4.84.5l.32,0c-3.73.31-7.49.5-11.3.5-.39,0-.78,0-1.18,0-4,0-8-.27-12-.65-1.1-.1-2.2-.21-3.29-.34-4.38-.52-8.71-1.19-13-2.12-.58-.12-1.14-.28-1.71-.41-2.55-.58-5.08-1.2-7.58-1.92l-.66-.21a144.07,144.07,0,0,1-31-13.2l-.33-.18a150.31,150.31,0,0,1-13.56-8.87l-1.16-.83a155.74,155.74,0,0,1-12.08-10L170,217.22a160.16,160.16,0,0,1-13.26-14c-.29-.35-.6-.69-.89-1a164.62,164.62,0,0,1-12.14-16.74C146,181.81,148.4,178.34,150.93,175Z"/><path fill="#fff" d="M373.48,339.78A18.05,18.05,0,0,0,357.84,342a159.29,159.29,0,0,1-176.77,0,18,18,0,0,0-15.61-2.23c-38.29,12.59-63.51,42.68-74.91,81,52.59,19.58,114.37,30.86,180.46,30.86,65.1,0,126-11,178.05-30C437.88,382.93,412.14,352.47,373.48,339.78Z"/></svg>