<svg xmlns="http://www.w3.org/2000/svg" viewBox="0 0 512 512"><path fill="rgba(114,147,35,0.6)" d="M437.33,235.82a.68.68,0,0,0,0-.14,2.45,2.45,0,0,0,0-.27c0-28.33-14.42-52.21-40.82-58.71a71.79,71.79,0,0,1-40.62,14.08c15.26,15.9,24.19,38.59,24.33,64.78h0V256l6.59,64.95.07.71v.71a38,38,0,0,1-24.09,35.24v30.78a25.93,25.93,0,1,0,51.86,0v-82.8a19.06,19.06,0,0,0,8.72,2.19,19.36,19.36,0,0,0,19.3-19.3Z"/><path fill="rgba(114,147,35,0.6)" d="M123.56,322.32v-.69l.07-.68,6.62-67.67c0-.71.11-1.4.21-2.09,1.35-24.58,10.08-45.51,24.26-60.4a71.79,71.79,0,0,1-40.78-14.09C88.53,183,74.67,205.34,73.27,232.3c0,.52-.16,1-.16,1.56l-5.34,54.57a19.36,19.36,0,0,0,19.3,19.3,19,19,0,0,0,8.72-2.19v82.8a25.93,25.93,0,0,0,51.86,0V357.56A38,38,0,0,1,123.56,322.32Z"/><path fill="rgba(114,147,35,0.6)" d="M179.79,110.53c0,2.33.14,4.62.34,6.89.07.73.17,1.44.26,2.16.19,1.6.43,3.19.72,4.76.14.76.28,1.52.45,2.27q.56,2.55,1.29,5c.15.51.27,1,.43,1.55.64,2,1.38,4,2.19,6,.32.79.69,1.56,1,2.33.55,1.2,1.11,2.39,1.71,3.55.46.9.94,1.77,1.43,2.64s1.18,2,1.8,3,1.1,1.79,1.7,2.65c.72,1,1.49,2,2.26,3,1.17,1.53,2.41,3,3.7,4.45.51.57,1,1.13,1.53,1.68s1.35,1.35,2,2c.3.29.6.6.91.89s.91.84,1.38,1.26a75.07,75.07,0,0,0,12.35,9l.29.18c1.44.83,2.92,1.6,4.41,2.33l1,.47a73.6,73.6,0,0,0,11.19,4.28h0c2.19.64,4.42,1.19,6.69,1.63.48.1,1,.14,1.45.22,1.83.32,3.66.63,5.54.81a70.23,70.23,0,0,0,7.14.36h.44c2.4,0,4.78-.12,7.12-.36,1.89-.18,3.72-.49,5.56-.81.48-.08,1-.12,1.43-.22a74.63,74.63,0,0,0,17.9-5.91l1-.46c1.51-.74,3-1.51,4.43-2.34l.26-.17a74.84,74.84,0,0,0,12.38-9c.46-.41.92-.82,1.37-1.25s.61-.6.91-.89c.69-.67,1.38-1.33,2-2s1-1.11,1.52-1.67q1.92-2.15,3.68-4.42c.78-1,1.56-2,2.29-3.06.59-.86,1.12-1.75,1.68-2.63s1.24-2,1.81-3c.5-.86,1-1.73,1.43-2.62.61-1.17,1.17-2.37,1.72-3.57.34-.77.71-1.53,1-2.31.81-2,1.55-4,2.2-6,.15-.49.26-1,.41-1.48q.74-2.52,1.31-5.1c.16-.74.3-1.48.44-2.22.29-1.59.54-3.2.73-4.82.09-.71.18-1.4.25-2.11.21-2.3.35-4.62.35-7a75.1,75.1,0,0,0-12.88-42.17c-.4-.59-.89-1.08-1.3-1.65a75.12,75.12,0,0,0-122.45,0,74.69,74.69,0,0,0-14.25,43.85S179.79,110.51,179.79,110.53Z"/><path fill="rgba(114,147,35,0.6)" d="M350.91,118.72c-.06.67-.14,1.33-.22,2l-.06.51c-.23,1.93-.52,3.84-.9,5.83-.15.85-.32,1.7-.5,2.52-.43,2-1,4-1.62,6.33-.14.51-.28,1-.43,1.48-.74,2.35-1.59,4.68-2.6,7.12-.29.72-.61,1.43-.94,2.13l-.28.62c-.65,1.44-1.33,2.86-2,4.23-.54,1.05-1.11,2.09-1.7,3.13-.68,1.2-1.41,2.38-2.14,3.53l-.37.6c-.53.84-1.07,1.69-1.64,2.51-.78,1.14-1.62,2.24-2.47,3.33l-.23.3c-1.36,1.77-2.83,3.53-4.37,5.26l-.35.38-1.2,1.32-.24.26-.34.34c.28.14.56.3.85.44l.78.38a59.09,59.09,0,0,0,9,3.43h0c.45.13.92.21,1.37.33,1.32.36,2.64.71,4,1,.38.07.77.11,1.15.17,1.47.26,2.94.51,4.44.65,1.89.19,3.8.28,5.73.29h.35c1.93,0,3.83-.1,5.71-.29,1.51-.14,3-.39,4.45-.65.38-.07.77-.1,1.14-.17a59.7,59.7,0,0,0,14.35-4.74l.77-.37c1.21-.59,2.39-1.21,3.55-1.88l.21-.13a60.4,60.4,0,0,0,9.92-7.23c.37-.33.74-.66,1.1-1,.81-.76,1.6-1.53,2.36-2.34.42-.43.81-.88,1.22-1.33,1-1.15,2-2.32,2.95-3.55.62-.8,1.25-1.61,1.83-2.45.47-.69.9-1.4,1.35-2.11s1-1.57,1.45-2.39.78-1.39,1.14-2.1c.49-.94.94-1.89,1.38-2.86.28-.62.57-1.22.83-1.85q1-2.35,1.76-4.81c.12-.39.21-.79.33-1.18.4-1.35.75-2.71,1.05-4.09.13-.59.24-1.18.35-1.78.24-1.27.43-2.56.59-3.87.07-.56.14-1.12.2-1.68.16-1.85.28-3.71.28-5.59a60.28,60.28,0,0,0-77.89-57.82,89,89,0,0,1,15,49.61C351.33,113,351.19,115.71,350.91,118.72Z"/><path fill="rgba(114,147,35,0.6)" d="M96.55,124.24c0,.58.13,1.16.2,1.73.15,1.29.35,2.56.58,3.82.12.61.23,1.21.36,1.81.3,1.36.64,2.7,1,4,.12.41.22.83.35,1.24.51,1.63,1.1,3.23,1.75,4.79.26.64.56,1.25.84,1.87.43,1,.89,1.91,1.37,2.85.37.71.75,1.42,1.15,2.11s.94,1.59,1.43,2.37.89,1.43,1.37,2.12,1.19,1.62,1.8,2.42q1.43,1.84,3,3.57c.41.45.81.91,1.23,1.35.76.8,1.54,1.57,2.35,2.33l1.11,1a60.18,60.18,0,0,0,9.9,7.22l.23.14c1.15.67,2.34,1.28,3.54,1.87l.78.38a58.68,58.68,0,0,0,9,3.43h0q2.64.76,5.37,1.31c.38.07.77.11,1.15.17,1.47.26,2.94.51,4.44.65,1.89.19,3.8.28,5.73.29h.35c1.93,0,3.83-.1,5.71-.29,1.51-.14,3-.39,4.45-.65.38-.07.77-.1,1.14-.17,1.51-.29,3-.76,4.42-1.16a61.1,61.1,0,0,0,9.93-3.58l.77-.37.85-.45c-.1-.12-.22-.22-.33-.33s-.15-.18-.23-.26c-.43-.45-.84-.91-1.26-1.37l-.33-.37c-1.54-1.72-3-3.5-4.38-5.27l-.3-.39c-.81-1-1.61-2.1-2.37-3.2-.57-.82-1.1-1.66-1.63-2.51l-.38-.61c-.73-1.16-1.45-2.32-2.14-3.52-.59-1-1.15-2.08-1.69-3.12-.72-1.38-1.39-2.79-2-4.23l-.27-.59c-.33-.71-.65-1.43-1-2.17-1-2.44-1.85-4.76-2.6-7.11-.16-.51-.3-1-.51-1.83q-.87-2.94-1.53-6c-.18-.82-.34-1.64-.53-2.69-.35-1.87-.64-3.75-.87-5.66l-.07-.55c-.08-.66-.16-1.32-.22-2-.25-2.66-.38-5.09-.4-7.41v-.83a88.5,88.5,0,0,1,15.09-49.65,60.55,60.55,0,0,0-77.95,57.86s0,0,0,0C96.27,120.59,96.38,122.42,96.55,124.24Z"/><path fill="rgba(114,147,35,0.6)" d="M366.22,322.32l-6.67-65.66c0-.06,0-.11,0-.17s0-.22,0-.33c0-35.32-17.95-65.1-50.82-73.25a.29.29,0,0,0-.22,0,90.09,90.09,0,0,1-34.61,15.58,86.48,86.48,0,0,1-37,.08,90.07,90.07,0,0,1-35-15.66.26.26,0,0,0-.21,0,63.11,63.11,0,0,0-20.94,9.38C164,204,154.13,223.44,151.6,246q-.34,3.08-.51,6.24c-.06.65-.2,1.28-.2,1.95l-6.67,68.1a24.08,24.08,0,0,0,10.09,19.5h0a23.88,23.88,0,0,0,14,4.58,22.61,22.61,0,0,0,4.14-.43,25.21,25.21,0,0,0,6.74-2.3V445.25c0,17,12.33,32.36,29.26,34A32.44,32.44,0,0,0,243.9,447V354.54h0c0-.05,0-.1,0-.16a11.3,11.3,0,1,1,22.6,0c0,.06,0,.11,0,.16h0v90.71c0,17,12.33,32.36,29.26,34A32.44,32.44,0,0,0,331.25,447V343.67h0A25.21,25.21,0,0,0,338,346a22.63,22.63,0,0,0,4.15.43,24.29,24.29,0,0,0,24.08-24.08Z"/></svg>