<svg xmlns="http://www.w3.org/2000/svg" viewBox="0 0 512 512"><path fill="rgb(190,190,190)" d="M394.82,37.49H117.18A78.78,78.78,0,0,0,38.63,116V393.67a78.79,78.79,0,0,0,78.55,78.56H394.82a78.79,78.79,0,0,0,78.55-78.56V116A78.78,78.78,0,0,0,394.82,37.49Zm-194.7,93.86a93.6,93.6,0,0,1,149.67,75c0,2.92-.17,5.8-.44,8.66-.07.88-.2,1.74-.3,2.61-.24,2-.54,4-.92,6q-.24,1.39-.54,2.76c-.46,2.14-1,4.25-1.62,6.33-.18.61-.32,1.24-.51,1.84-.81,2.54-1.73,5-2.73,7.46-.4,1-.85,1.91-1.29,2.86q-1,2.25-2.13,4.44c-.57,1.1-1.16,2.18-1.77,3.26-.72,1.26-1.47,2.48-2.25,3.7s-1.36,2.2-2.09,3.27c-.9,1.3-1.88,2.54-2.85,3.8q-2.18,2.84-4.57,5.49c-.62.69-1.24,1.4-1.88,2.07-1.18,1.24-2.41,2.44-3.66,3.62-.56.53-1.13,1-1.71,1.55a93.65,93.65,0,0,1-15.36,11.2l-.33.21c-1.8,1-3.63,2-5.5,2.91l-1.2.57a92.85,92.85,0,0,1-22.23,7.35c-.58.11-1.19.16-1.77.27-2.28.39-4.57.78-6.9,1q-4.37.44-8.85.45h-.55q-4.49,0-8.87-.45c-2.33-.22-4.6-.61-6.88-1-.6-.11-1.2-.16-1.8-.27-2.81-.55-5.58-1.24-8.31-2h0a91.91,91.91,0,0,1-13.9-5.32l-1.22-.58c-1.86-.91-3.69-1.87-5.48-2.9l-.36-.22a94,94,0,0,1-15.34-11.18c-.58-.52-1.15-1-1.72-1.56-1.24-1.18-2.47-2.37-3.65-3.62-.65-.67-1.27-1.38-1.89-2.08q-2.41-2.69-4.6-5.53c-.95-1.24-1.91-2.47-2.81-3.75-.74-1.07-1.41-2.19-2.1-3.29s-1.53-2.42-2.24-3.67c-.61-1.08-1.2-2.17-1.77-3.28-.75-1.45-1.45-2.92-2.13-4.41-.43-1-.89-1.91-1.3-2.9-1-2.42-1.91-4.89-2.71-7.42-.2-.63-.35-1.29-.54-1.93-.6-2-1.14-4.13-1.6-6.24-.2-.93-.38-1.87-.55-2.81q-.56-2.93-.91-5.91c-.1-.9-.23-1.78-.31-2.68-.26-2.83-.43-5.67-.43-8.56v-.08A93.45,93.45,0,0,1,200.12,131.35ZM369.44,413.27H142.76a54.13,54.13,0,0,1-18.68-3.37l2.45-25c0-.83.18-1.61.25-2.42,2.16-41.77,23.65-76.46,63-86.17a111,111,0,0,0,132.61,0c40.92,10.07,63.26,47.09,63.26,91,0,.14,0,.28,0,.42s0,.13,0,.2L387.91,410A54.16,54.16,0,0,1,369.44,413.27Z"/></svg>