<svg xmlns="http://www.w3.org/2000/svg" viewBox="0 0 512 512"><path fill="rgb(144, 113, 74)" d="M419.49,0h-327C41.63,0,0,41.63,0,92.52v327C0,470.37,41.63,512,92.51,512h327c50.88,0,92.51-41.63,92.51-92.52v-327C512,41.63,470.37,0,419.49,0ZM213.1,58.9a71.73,71.73,0,0,1,114.69,57.47c0,2.24-.13,4.45-.33,6.64-.07.67-.16,1.33-.24,2-.18,1.55-.41,3.08-.7,4.59-.13.71-.26,1.41-.41,2.11-.36,1.65-.78,3.26-1.25,4.86-.14.47-.24.94-.39,1.41-.61,1.94-1.32,3.84-2.09,5.71-.31.74-.66,1.46-1,2.19-.52,1.15-1.06,2.29-1.63,3.4-.44.85-.89,1.68-1.36,2.5s-1.13,1.9-1.72,2.84-1,1.68-1.61,2.5c-.69,1-1.43,1.95-2.17,2.91q-1.68,2.17-3.51,4.21c-.48.53-.94,1.07-1.44,1.59-.91.95-1.84,1.87-2.8,2.77-.43.41-.87.8-1.31,1.19a71.2,71.2,0,0,1-11.78,8.59l-.25.15c-1.38.8-2.78,1.53-4.21,2.23l-.92.44a71,71,0,0,1-17,5.63c-.44.09-.9.13-1.35.21-1.75.3-3.5.59-5.29.77q-3.35.33-6.78.34h-.42q-3.44,0-6.8-.34c-1.78-.18-3.53-.47-5.27-.77-.46-.08-.92-.12-1.37-.21-2.17-.42-4.29-1-6.38-1.55h0a70.72,70.72,0,0,1-10.65-4.07c-.32-.14-.62-.29-.93-.44-1.43-.7-2.83-1.43-4.2-2.23l-.28-.16a72.44,72.44,0,0,1-11.75-8.57c-.45-.4-.89-.79-1.32-1.2-1-.9-1.89-1.82-2.8-2.77-.49-.52-1-1.06-1.45-1.6q-1.84-2-3.52-4.23c-.73-.95-1.47-1.89-2.15-2.88-.57-.82-1.08-1.67-1.62-2.52s-1.16-1.85-1.71-2.81-.92-1.66-1.36-2.51c-.57-1.11-1.11-2.24-1.63-3.38-.33-.74-.68-1.47-1-2.22-.77-1.86-1.47-3.76-2.08-5.69-.16-.49-.27-1-.41-1.48-.46-1.57-.88-3.16-1.23-4.78-.16-.71-.29-1.43-.43-2.15-.27-1.5-.5-3-.69-4.54-.08-.68-.17-1.36-.24-2.05-.2-2.16-.33-4.34-.33-6.55v-.07A71.62,71.62,0,0,1,213.1,58.9Zm125.61,282a22.49,22.49,0,0,1-10.35-2.61v98.34a30.8,30.8,0,0,1-61.59,0v-88h0c0-.05,0-.1,0-.14a10.76,10.76,0,1,0-21.52,0s0,.09,0,.14h0v88a30.8,30.8,0,0,1-61.59,0V338.29a22.49,22.49,0,0,1-10.35,2.61A23,23,0,0,1,150.37,318l6.34-64.81c0-.64.14-1.23.19-1.86,1.66-32,18.13-58.59,48.3-66a85.06,85.06,0,0,0,101.61,0c31.35,7.72,48.48,36.09,48.48,69.74,0,.1,0,.21,0,.32s0,.1,0,.15L361.63,318A23,23,0,0,1,338.71,340.9Z"/></svg>