<svg xmlns="http://www.w3.org/2000/svg" viewBox="0 0 228.88 512"><path fill="#fff" d="M37,111.89c.07.75.17,1.49.26,2.23.2,1.65.45,3.29.75,4.91.15.78.29,1.56.46,2.34.38,1.74.83,3.47,1.33,5.17.16.53.28,1.08.45,1.6.66,2.1,1.42,4.15,2.25,6.17.34.81.72,1.6,1.08,2.4.56,1.24,1.14,2.46,1.76,3.66.48.92,1,1.83,1.48,2.73s1.22,2,1.85,3,1.14,1.84,1.75,2.73c.74,1.07,1.54,2.09,2.33,3.11,1.21,1.59,2.49,3.12,3.82,4.6.52.58,1,1.17,1.57,1.73,1,1,2,2,3,3,.47.44,1,.87,1.43,1.29a77.59,77.59,0,0,0,12.73,9.29l.3.18c1.49.86,3,1.65,4.55,2.41l1,.48a76.33,76.33,0,0,0,11.54,4.41h0c2.27.66,4.56,1.23,6.91,1.69.49.09,1,.14,1.49.22,1.89.33,3.78.65,5.71.84q3.63.36,7.37.37h.45q3.72,0,7.34-.37c1.94-.19,3.84-.51,5.73-.84.49-.08,1-.13,1.47-.22a77.09,77.09,0,0,0,18.46-6.1l1-.48c1.55-.76,3.08-1.55,4.57-2.41l.27-.17a78,78,0,0,0,12.76-9.3c.48-.42.95-.85,1.42-1.29,1-1,2.05-2,3-3,.53-.56,1-1.15,1.56-1.72,1.32-1.48,2.59-3,3.8-4.56.8-1,1.61-2.08,2.35-3.16.62-.88,1.17-1.8,1.74-2.71s1.28-2,1.87-3.07,1-1.8,1.47-2.71q.93-1.81,1.77-3.69c.36-.79.74-1.57,1.07-2.37.83-2,1.6-4.09,2.26-6.19.16-.5.28-1,.43-1.53q.76-2.59,1.35-5.26c.16-.75.31-1.52.45-2.28.3-1.64.55-3.3.76-5,.08-.72.18-1.44.25-2.17.22-2.37.36-4.76.36-7.19a77.7,77.7,0,0,0-77.78-77.78h0a78,78,0,0,0-77.78,77.78s0,0,0,.07C36.67,107.19,36.81,109.55,37,111.89Z"/><path fill="#fff" d="M222,254.94c0-36.46-18.55-67.19-52.52-75.56a92.18,92.18,0,0,1-110.09,0c-32.69,8.06-50.53,36.87-52.32,71.54-.06.68-.21,1.33-.21,2L0,323.15A24.9,24.9,0,0,0,24.83,348a24.48,24.48,0,0,0,11.22-2.82V451.7a33.37,33.37,0,0,0,66.73,0V356.37h0c0-.05,0-.1,0-.16a11.66,11.66,0,0,1,23.31,0c0,.06,0,.11,0,.16h0V451.7a33.36,33.36,0,0,0,66.72,0V345.16A24.49,24.49,0,0,0,204.06,348a24.9,24.9,0,0,0,24.82-24.83L222,255.45c0-.06,0-.11,0-.17S222,255.05,222,254.94Z"/></svg>