<svg xmlns="http://www.w3.org/2000/svg" viewBox="0 0 512 512"><path fill="rgb(215,72,5)" d="M309.42,124.15l-13.72-8.62a18.74,18.74,0,0,0-26.1,6l-.05.07-.27.44-51.19,81.5,45.74,28.72L315,150.79l.27-.44.05-.07A18.74,18.74,0,0,0,309.42,124.15Z"/><path fill="rgb(215,72,5)" d="M419.49,0h-327C41.63,0,0,41.63,0,92.52v327C0,470.37,41.63,512,92.51,512h327c50.88,0,92.51-41.63,92.51-92.52v-327C512,41.63,470.37,0,419.49,0ZM245.32,429.26c-11.14-4.32-29.3-10-47.15-8.27-27.45,2.64-54.84,18-69.84,27.73-5.67,3.69-13,.07-14.09-7L72.56,179.67c-1-6,3.24-11.55,8.92-11.78l28.83-1.15a147.64,147.64,0,0,0-.75,14.79c0,77.17,60,140.46,135.76,146ZM192.82,282A119.09,119.09,0,1,1,357,244.5,119.21,119.21,0,0,1,192.82,282ZM439.73,179.67l-41.67,262.1c-1.12,7-8.42,10.64-14.09,7C369,439,341.58,423.63,314.13,421c-17.85-1.71-36,3.95-47.15,8.27V327.57c75.77-5.58,135.76-68.87,135.76-146a147.64,147.64,0,0,0-.75-14.79l28.83,1.15C436.5,168.12,440.69,173.66,439.73,179.67Z"/><path fill="rgb(215,72,5)" d="M212.11,215.21l-6.42,39.56a12.12,12.12,0,0,0,.64,6.47,9.71,9.71,0,0,0,3.81,4.64l1,.64a9.67,9.67,0,0,0,5.83,1.42,12.32,12.32,0,0,0,6.11-2.23l32.84-23a14.48,14.48,0,0,0,1.93-2.05l-44.77-28.11A14.5,14.5,0,0,0,212.11,215.21Z"/></svg>