<svg xmlns="http://www.w3.org/2000/svg" viewBox="0 0 384.81 512"><path fill="#fff" d="M38.89,177.85c0-5.22.27-10.39.78-15.48l-30.19,1.2c-6,.24-10.34,6-9.34,12.34L43.79,450.4c1.17,7.35,8.82,11.14,14.76,7.28,15.71-10.23,44.39-26.29,73.14-29,18.69-1.8,37.71,4.13,49.37,8.65V330.8C101.71,325,38.89,258.67,38.89,177.85Z"/><path fill="#fff" d="M375.33,163.57l-30.19-1.2c.51,5.09.78,10.26.78,15.48,0,80.82-62.82,147.1-142.17,153V437.29c11.66-4.52,30.68-10.45,49.37-8.65,28.75,2.75,57.44,18.81,73.15,29,5.94,3.86,13.58.07,14.75-7.28l43.65-274.49C385.67,169.61,381.28,163.81,375.33,163.57Z"/><path fill="#fff" d="M298,243.8a124.72,124.72,0,1,0-171.95,39.3A124.87,124.87,0,0,0,298,243.8Zm-106.66-4.59-40.54,28.35a15,15,0,0,1-7.54,2.76,11.91,11.91,0,0,1-7.2-1.75l-1.27-.79a11.94,11.94,0,0,1-4.7-5.73,15,15,0,0,1-.79-8l7.93-48.83a17.33,17.33,0,0,1,1.23-3.25l55.27,34.71A17.88,17.88,0,0,1,191.37,239.21Zm73.31-114.14-.06.09-.34.54L201.1,226.32l-56.46-35.46L207.82,90.24l.34-.53.06-.1a23.14,23.14,0,0,1,32.23-7.43l16.93,10.63A23.13,23.13,0,0,1,264.68,125.07Z"/></svg>