<svg id="Layer_1" data-name="Layer 1" xmlns="http://www.w3.org/2000/svg" viewBox="0 0 512 512"><path d="M120.06,332.41l-18.8,115.78a35.62,35.62,0,0,0,1.87,18.94,28.27,28.27,0,0,0,11.16,13.58l3,1.88a28.26,28.26,0,0,0,17.08,4.15,35.6,35.6,0,0,0,17.87-6.54L248.36,413c2.23-1.57,3.75-4,5.66-6L123,324.7C122,327.29,120.49,329.71,120.06,332.41Z"/><path d="M404.86,65.87,364.71,40.66c-26.26-16.49-59.84-8.75-76.41,17.64l-.14.22-.79,1.27L137.56,298.35l133.86,84.06,149.8-238.56.8-1.27.14-.22C438.73,116,431.14,82.38,404.86,65.87Z"/></svg>