<svg id="Layer_1" data-name="Layer 1" xmlns="http://www.w3.org/2000/svg" viewBox="0 0 512 512"><path d="M259.53,37.26c-120.18,0-217.61,97.42-217.61,217.6s97.43,217.6,217.61,217.6,217.6-97.42,217.6-217.6S379.71,37.26,259.53,37.26Zm-11,317.22-60.46,42.28a22.46,22.46,0,0,1-11.24,4.11,17.83,17.83,0,0,1-10.74-2.61l-1.89-1.19a17.74,17.74,0,0,1-7-8.54,22.41,22.41,0,0,1-1.18-11.9l11.82-72.82c.28-1.7,1.24-3.22,1.85-4.85l82.41,51.76C250.9,352,249.94,353.49,248.54,354.48Zm109.3-170.2-.09.14-.5.8L263,335.25l-84.18-52.86,94.22-150,.5-.79.08-.14a34.5,34.5,0,0,1,48.06-11.09L347,136.18A34.5,34.5,0,0,1,357.84,184.28Z"/></svg>