<svg xmlns="http://www.w3.org/2000/svg" viewBox="0 0 512 512"><path fill="rgb(31,111,185)" d="M419.49,0h-327C41.63,0,0,41.63,0,92.52v327C0,470.37,41.63,512,92.51,512h327c50.88,0,92.51-41.63,92.51-92.52v-327C512,41.63,470.37,0,419.49,0Zm16,281.81H387.61a8.22,8.22,0,0,0-7.93,8.48v153a8.21,8.21,0,0,1-7.92,8.48H275.43a8.21,8.21,0,0,1-7.92-8.48V331.84a8.22,8.22,0,0,0-7.93-8.48H194.79a8.22,8.22,0,0,0-7.93,8.48v111.5a8.22,8.22,0,0,1-7.92,8.48h-38.7a8.21,8.21,0,0,1-7.92-8.48v-153a8.22,8.22,0,0,0-7.93-8.48H76.54c-6.92,0-10.52-8.83-5.81-14.25L250.2,47.28a7.59,7.59,0,0,1,11.61,0L441.27,267.56C446,273,442.38,281.81,435.46,281.81Z"/></svg>