<svg xmlns="http://www.w3.org/2000/svg" viewBox="0 0 512 512"><path fill="rgb(90,201,191)" d="M419.49,0h-327C41.63,0,0,41.63,0,92.52v327C0,470.37,41.63,512,92.51,512h327c50.88,0,92.51-41.63,92.51-92.52v-327C512,41.63,470.37,0,419.49,0ZM124.85,191.05a130.76,130.76,0,0,1,52.48-96.87q4.11-3.06,8.44-5.82A130.6,130.6,0,0,1,339,98c2.42,2,4.78,4.09,7.05,6.26a132,132,0,0,1,12.68,14q2.93,3.72,5.57,7.64a130.22,130.22,0,0,1,22,63.16q.38,5,.38,10.08c0,2.24-.21,4.42-.33,6.63-.11,1.82-.11,3.68-.28,5.49-.11,1.23-.28,2.44-.42,3.65-.35,2.83-.77,5.62-1.28,8.38-.24,1.29-.48,2.58-.76,3.86-.65,3-1.42,5.94-2.28,8.85-.25.86-.44,1.73-.71,2.57-1.12,3.55-2.41,7-3.81,10.43-.56,1.35-1.2,2.67-1.8,4-.95,2.1-1.93,4.17-3,6.21-.79,1.54-1.61,3.05-2.47,4.55-1,1.76-2.07,3.48-3.15,5.18-1,1.53-1.9,3.08-2.92,4.57-1.26,1.82-2.62,3.56-4,5.31q-3,4-6.39,7.69c-.88,1-1.73,1.95-2.63,2.89-1.66,1.74-3.37,3.42-5.12,5.07-.79.73-1.58,1.45-2.39,2.17a131.18,131.18,0,0,1-21.49,15.66l-.46.28c-2.51,1.45-5.08,2.79-7.69,4.07l-1.66.8a129.63,129.63,0,0,1-31.1,10.27c-.81.16-1.65.23-2.47.38-3.19.55-6.38,1.09-9.65,1.41q-6.11.6-12.37.62l-.41,0h-.36q-6.28,0-12.41-.63c-3.25-.32-6.44-.86-9.62-1.41-.83-.14-1.68-.22-2.5-.38-4-.76-7.82-1.73-11.64-2.83h0a130,130,0,0,1-19.44-7.43l-1.7-.82c-2.59-1.28-5.16-2.61-7.66-4.05l-.5-.31a130.82,130.82,0,0,1-21.46-15.64c-.8-.72-1.61-1.44-2.4-2.18-1.74-1.64-3.45-3.32-5.1-5.05-.91-.95-1.77-1.94-2.65-2.92-2.24-2.5-4.39-5.07-6.43-7.74-1.34-1.72-2.68-3.44-3.92-5.24-1-1.49-2-3.05-3-4.59s-2.13-3.4-3.12-5.14q-1.29-2.26-2.49-4.58c-1-2-2-4.09-3-6.17-.61-1.35-1.25-2.68-1.82-4.05-1.4-3.4-2.68-6.85-3.79-10.38-.28-.89-.49-1.81-.75-2.7-.84-2.87-1.6-5.77-2.24-8.72-.29-1.3-.53-2.62-.77-3.94q-.77-4.08-1.27-8.27c-.15-1.24-.32-2.48-.44-3.74-.16-1.8-.17-3.65-.27-5.46-.12-2.17-.33-4.31-.33-6.51,0,0,0-.08,0-.12C124.61,196.36,124.69,193.69,124.85,191.05ZM257.18,444c-64.39,0-124.56-11-175.79-30.07,11.1-37.3,35.66-66.61,73-78.87a17.54,17.54,0,0,1,15.21,2.17,155.15,155.15,0,0,0,172.19,0A17.58,17.58,0,0,1,357,335c37.66,12.36,62.73,42,73.62,79.71C379.89,433.28,320.59,444,257.18,444Z"/><path fill="rgb(90,201,191)" d="M163.2,210.17a132.19,132.19,0,0,0,11,11.59l1.09,1a126.59,126.59,0,0,0,10,8.28l1,.69a124.52,124.52,0,0,0,11.2,7.33c.09.05.19.09.28.15a119.25,119.25,0,0,0,25.58,10.91l.55.17c2.06.59,4.15,1.1,6.26,1.59.47.1.94.24,1.41.34,3.52.76,7.1,1.31,10.71,1.75l2.72.28c3.27.31,6.57.51,9.9.54.33,0,.65,0,1,0,3.15,0,6.25-.16,9.34-.42l-.27,0c1.34-.11,2.67-.26,4-.41,1-.12,2-.19,3-.33s1.91-.34,2.87-.5l1.17-.21c-.21,0-.43,0-.64.09.88-.16,1.76-.31,2.63-.48-.21,0-.42.11-.64.15.89-.16,1.79-.29,2.67-.48.55-.12,1.07-.27,1.61-.39,2.07-.48,4.13-1,6.16-1.56.51-.14,1-.32,1.5-.47q4.32-1.31,8.51-2.93c.68-.27,1.37-.52,2-.79,3.11-1.27,6.17-2.65,9.15-4.18.49-.25,1-.53,1.45-.79,2.5-1.32,4.94-2.73,7.35-4.22.8-.5,1.61-1,2.41-1.52,2.68-1.75,5.31-3.59,7.86-5.54.62-.48,1.2-1,1.81-1.48,2-1.58,3.93-3.23,5.81-4.93.9-.82,1.8-1.63,2.68-2.47q3-2.87,5.84-5.92c.87-.94,1.71-1.92,2.56-2.89,1.55-1.77,3.06-3.58,4.51-5.44.86-1.1,1.7-2.2,2.53-3.33,1.42-1.92,2.77-3.89,4.09-5.9.45-.69.94-1.35,1.38-2.05l-.13-.19a138,138,0,0,0-9.86-13.58c-.3-.36-.62-.71-.92-1.08a133.27,133.27,0,0,0-10.83-11.44l-1.23-1.13a126.47,126.47,0,0,0-9.9-8.19c-.36-.27-.73-.52-1.09-.78a122.62,122.62,0,0,0-11.13-7.25l-.48-.27a118.82,118.82,0,0,0-25.89-10.92h0l0,0h0l-.09,0q-3.78-1.08-7.65-1.91c-3.69-.79-7.44-1.37-11.23-1.8l-1.49-.16c-3.78-.37-7.59-.61-11.46-.61A115.69,115.69,0,0,0,224,140.62l-.12,0,.09-.06c-3.4,1-6.73,2.13-10,3.4-.48.19-1,.37-1.45.57a120.77,120.77,0,0,0-18.83,9.58l-1.54,1a127.78,127.78,0,0,0-16.56,12.75L174,169.38c-2.54,2.39-5,4.85-7.37,7.45l-.06.07c-2.3,2.54-4.47,5.2-6.58,7.93l-1.53,2c-2.08,2.8-4.11,5.66-6,8.63a136,136,0,0,0,10,13.84C162.7,209.6,163,209.88,163.2,210.17Zm60.7-48.95a48.42,48.42,0,0,1,7.12-5.87c1.27-.86,2.6-1.67,4-2.41a47.94,47.94,0,0,1,8.62-3.64,47.15,47.15,0,0,1,4.61-1.18,48.08,48.08,0,0,1,36.57,87A47.72,47.72,0,0,1,240.36,240,49.32,49.32,0,0,1,235,237.5c-1.36-.74-2.69-1.55-4-2.41a48.42,48.42,0,0,1-7.12-5.87q-1.64-1.64-3.11-3.42a48.17,48.17,0,0,1-7.19-11.86,47.58,47.58,0,0,1-2.81-9,48.25,48.25,0,0,1,13.11-43.69Z"/><path fill="rgb(90,201,191)" d="M257.89,220a24.74,24.74,0,1,0-24.74-24.74A24.77,24.77,0,0,0,257.89,220Z"/></svg>