<svg xmlns="http://www.w3.org/2000/svg" viewBox="0 0 368.68 512"><path d="M130.75,203.65a59.67,59.67,0,0,0,9,14.77q1.83,2.22,3.86,4.25a59.78,59.78,0,0,0,8.86,7.31c1.59,1.07,3.24,2.07,4.93,3a60.51,60.51,0,0,0,6.7,3.05,58.55,58.55,0,0,0,9.76,2.95,60.22,60.22,0,0,0,24.12,0,59.7,59.7,0,0,0,21.39-9,59.86,59.86,0,0,0-21.39-108.24,60.71,60.71,0,0,0-24.12,0c-1.95.4-3.86.9-5.73,1.48a59.14,59.14,0,0,0-10.73,4.53c-1.69.92-3.34,1.92-4.93,3a60.34,60.34,0,0,0-8.86,7.3,59.9,59.9,0,0,0-16.31,54.37A59.05,59.05,0,0,0,130.75,203.65Zm55.13-54.08a30.79,30.79,0,1,1-30.79,30.79A30.83,30.83,0,0,1,185.88,149.57Z"/><path d="M46,202.86c.11,1.92.11,3.87.29,5.77.12,1.33.3,2.64.46,4,.36,2.94.8,5.85,1.34,8.73.25,1.4.51,2.78.81,4.16.68,3.11,1.48,6.17,2.36,9.2.28,1,.5,1.92.79,2.85,1.18,3.73,2.53,7.38,4,11,.6,1.45,1.28,2.86,1.93,4.28,1,2.2,2,4.37,3.13,6.51.84,1.63,1.72,3.24,2.62,4.84,1.05,1.84,2.16,3.64,3.3,5.42s2,3.27,3.11,4.85c1.32,1.9,2.73,3.71,4.14,5.54q3.24,4.21,6.79,8.16c.92,1,1.84,2.08,2.8,3.08,1.74,1.84,3.54,3.6,5.38,5.34.84.78,1.69,1.54,2.54,2.3a138.67,138.67,0,0,0,22.65,16.51l.53.32c2.64,1.53,5.35,2.93,8.09,4.28.59.3,1.19.58,1.79.87a136.6,136.6,0,0,0,20.52,7.84h0c4,1.17,8.1,2.19,12.28,3,.86.17,1.76.25,2.64.4,3.36.58,6.72,1.15,10.15,1.49,4.31.43,8.69.65,13.1.66l.39,0,.43,0q6.6,0,13.06-.66c3.45-.34,6.82-.91,10.18-1.49.87-.15,1.76-.23,2.62-.4a137.16,137.16,0,0,0,32.82-10.84l1.76-.85c2.76-1.35,5.47-2.76,8.12-4.29l.49-.3a137.91,137.91,0,0,0,22.68-16.54c.85-.75,1.69-1.51,2.52-2.29,1.85-1.74,3.66-3.51,5.41-5.34,1-1,1.85-2,2.77-3.06q3.52-3.93,6.75-8.11c1.43-1.85,2.87-3.69,4.2-5.61,1.08-1.57,2.07-3.21,3.09-4.82,1.14-1.8,2.26-3.61,3.32-5.47q1.35-2.37,2.61-4.81c1.12-2.15,2.15-4.34,3.15-6.55.64-1.41,1.31-2.8,1.9-4.23q2.24-5.4,4-11c.28-.89.49-1.81.75-2.72.91-3.07,1.72-6.18,2.4-9.35.3-1.34.55-2.7.8-4.06.55-2.92,1-5.87,1.35-8.85.16-1.29.33-2.56.45-3.86.18-1.91.18-3.87.29-5.8.14-2.32.36-4.63.36-7q0-5.37-.41-10.64a137.54,137.54,0,0,0-23.21-66.69q-2.81-4.14-5.88-8.06a139.34,139.34,0,0,0-13.39-14.72q-3.6-3.45-7.44-6.61A137.9,137.9,0,0,0,110.19,79q-4.56,2.89-8.9,6.14a138,138,0,0,0-55.4,102.26c-.17,2.79-.26,5.61-.26,8.44,0,0,0,.09,0,.13C45.64,198.32,45.86,200.58,46,202.86Zm16.1-32.93c.63-.84,1.26-1.67,1.9-2.5,2.63-3.39,5.33-6.71,8.18-9.87l.08-.08c2.93-3.24,6-6.3,9.17-9.28.67-.63,1.36-1.25,2-1.87a157.32,157.32,0,0,1,20.6-15.87l1.92-1.21a150,150,0,0,1,23.43-11.92l1.81-.7c4.08-1.58,8.23-3,12.47-4.24l-.12.08.15,0a144,144,0,0,1,39.59-5.57c4.82,0,9.56.3,14.26.77l1.85.19a140.83,140.83,0,0,1,14,2.24q4.82,1,9.52,2.38l.11,0h0l-.05,0h0A148.46,148.46,0,0,1,255.23,126c.19.12.39.22.59.33a154.93,154.93,0,0,1,13.85,9l1.36,1c4.26,3.17,8.37,6.59,12.32,10.19l1.53,1.41a165.23,165.23,0,0,1,13.48,14.24c.38.45.77.88,1.14,1.34a169.34,169.34,0,0,1,12.27,16.89c.05.09.11.16.16.25-.55.87-1.15,1.69-1.71,2.54-1.64,2.5-3.33,5-5.09,7.35-1,1.4-2.08,2.77-3.15,4.14-1.81,2.31-3.69,4.57-5.61,6.77-1.06,1.21-2.11,2.42-3.19,3.6-2.35,2.54-4.78,5-7.26,7.36-1.1,1-2.22,2.06-3.34,3.07q-3.52,3.18-7.23,6.14c-.76.61-1.48,1.25-2.25,1.84-3.17,2.44-6.45,4.72-9.79,6.9-1,.65-2,1.26-3,1.89-3,1.85-6,3.62-9.15,5.26-.6.32-1.19.67-1.79,1-3.72,1.89-7.53,3.61-11.39,5.19-.84.35-1.69.66-2.54,1-3.48,1.34-7,2.57-10.59,3.65-.63.19-1.24.4-1.86.58-2.54.73-5.1,1.35-7.68,1.94-.67.15-1.32.34-2,.48-1.1.24-2.22.41-3.33.6.27,0,.53-.13.79-.18-1.08.21-2.17.4-3.27.59l.8-.1-1.46.26c-1.19.2-2.37.45-3.57.62s-2.51.26-3.77.4c-1.65.19-3.3.39-5,.52l.33-.05c-3.83.32-7.7.52-11.62.52-.4,0-.8,0-1.21,0-4.15,0-8.25-.28-12.32-.67-1.13-.11-2.26-.22-3.39-.35-4.49-.54-8.95-1.23-13.32-2.18-.6-.12-1.17-.29-1.76-.42-2.62-.6-5.23-1.24-7.79-2-.24-.06-.46-.14-.69-.21a148.53,148.53,0,0,1-31.84-13.58l-.33-.18a155.34,155.34,0,0,1-14-9.12l-1.19-.86c-4.3-3.21-8.44-6.66-12.42-10.3l-1.36-1.25A164.79,164.79,0,0,1,68,199c-.31-.36-.62-.7-.93-1.07a171.65,171.65,0,0,1-12.48-17.21C57,177,59.49,173.41,62.09,169.93Z"/><path d="M291,339.44a18.52,18.52,0,0,0-16.09,2.28,163.79,163.79,0,0,1-181.79,0,18.51,18.51,0,0,0-16-2.3c-39.38,12.95-65.31,43.89-77,83.26,54.08,20.14,117.61,31.75,185.58,31.75,66.94,0,129.55-11.28,183.1-30.86C357.18,383.8,330.71,352.48,291,339.44Z"/></svg>