<svg xmlns="http://www.w3.org/2000/svg" viewBox="0 0 512 512"><path fill="rgb(114,147,35)" d="M419.49,0h-327C41.63,0,0,41.63,0,92.52v327C0,470.37,41.63,512,92.51,512h327c50.88,0,92.51-41.63,92.51-92.52v-327C512,41.63,470.37,0,419.49,0ZM326.91,178.69c.08-.07.15-.16.22-.23.37-.39.73-.79,1.09-1.2l.32-.35c1.4-1.57,2.74-3.17,4-4.78l.21-.27c.77-1,1.53-2,2.25-3,.52-.75,1-1.52,1.48-2.29l.34-.54c.66-1,1.32-2.11,1.95-3.2s1.05-1.9,1.54-2.85c.65-1.25,1.26-2.54,1.85-3.84l.26-.57c.29-.63.58-1.27.85-1.93.92-2.22,1.7-4.34,2.37-6.47.13-.43.26-.89.38-1.35.61-2.1,1.09-4,1.48-5.75.16-.75.31-1.52.45-2.29.34-1.81.61-3.54.82-5.3l.05-.45c.08-.6.15-1.2.21-1.81.25-2.74.37-5.19.37-7.5a80.83,80.83,0,0,0-13.66-45.08,54.54,54.54,0,0,1,37.22,1.92,54.95,54.95,0,0,1,33.54,50.61c0,1.71-.1,3.4-.25,5.08-.05.51-.12,1-.18,1.53q-.21,1.77-.54,3.51c-.1.54-.2,1.08-.32,1.62-.27,1.25-.59,2.49-.95,3.71-.1.36-.19.72-.3,1.08-.47,1.48-1,2.94-1.6,4.37-.23.57-.5,1.12-.75,1.68-.4.88-.81,1.75-1.25,2.6-.34.64-.68,1.28-1,1.91s-.86,1.45-1.32,2.17-.8,1.29-1.23,1.91c-.52.77-1.1,1.5-1.66,2.23-.85,1.11-1.75,2.18-2.68,3.22-.37.41-.73.82-1.11,1.22-.69.72-1.41,1.43-2.14,2.12l-1,.91a54.92,54.92,0,0,1-9,6.56,2.12,2.12,0,0,1-.2.12c-1.05.61-2.12,1.17-3.22,1.71l-.7.34a54.45,54.45,0,0,1-13,4.3c-.34.07-.69.1-1,.16-1.34.23-2.67.46-4,.59-1.71.17-3.44.26-5.19.26h-.32c-1.76,0-3.49-.09-5.2-.26-1.37-.13-2.7-.36-4-.59-.34-.06-.7-.09-1.05-.16-1.23-.24-2.43-.56-3.63-.88-.41-.11-.83-.19-1.24-.31h0a54,54,0,0,1-8.15-3.11l-.71-.34c-.27-.13-.52-.28-.77-.41ZM200.41,82.85a69,69,0,0,1,14.63-15,68.15,68.15,0,0,1,96.62,15c.37.51.82,1,1.17,1.5a68.19,68.19,0,0,1,11.71,38.32c0,2.14-.13,4.24-.32,6.33-.06.65-.15,1.28-.23,1.92q-.25,2.2-.66,4.38c-.13.67-.25,1.35-.4,2-.34,1.56-.74,3.1-1.19,4.63-.13.45-.23.9-.37,1.34-.59,1.86-1.26,3.67-2,5.46-.29.71-.62,1.39-.94,2.09-.49,1.1-1,2.18-1.56,3.25-.42.8-.85,1.6-1.29,2.38s-1.08,1.82-1.65,2.71-1,1.61-1.53,2.39c-.66,1-1.38,1.86-2.08,2.78-1.07,1.39-2.18,2.72-3.35,4-.45.51-.9,1-1.37,1.51s-1.23,1.23-1.86,1.84c-.27.27-.54.55-.82.81s-.83.76-1.25,1.14a68.79,68.79,0,0,1-11.24,8.19l-.24.15c-1.32.76-2.66,1.46-4,2.13l-.87.42A67.56,67.56,0,0,1,269,190c-.42.09-.86.12-1.29.2-1.67.29-3.34.57-5.05.74q-3.19.32-6.47.32h-.4c-2.19,0-4.36-.11-6.49-.32-1.7-.17-3.37-.45-5-.74-.44-.07-.89-.11-1.32-.2-2.06-.4-4.09-.9-6.08-1.48h0a67.33,67.33,0,0,1-10.17-3.89l-.89-.42c-1.36-.67-2.7-1.37-4-2.13l-.26-.16a68.07,68.07,0,0,1-11.23-8.18c-.42-.38-.84-.75-1.25-1.14s-.55-.54-.82-.81c-.63-.6-1.25-1.2-1.85-1.83s-.93-1-1.39-1.53q-1.76-1.95-3.36-4c-.7-.9-1.4-1.8-2-2.74-.54-.78-1-1.6-1.55-2.4s-1.11-1.78-1.63-2.69-.88-1.59-1.3-2.4c-.55-1.06-1.06-2.13-1.55-3.22-.32-.71-.66-1.4-1-2.12-.74-1.78-1.41-3.59-2-5.43-.15-.47-.26-1-.39-1.42-.44-1.5-.84-3-1.18-4.56-.14-.68-.27-1.37-.4-2.06-.27-1.42-.48-2.87-.66-4.32-.08-.66-.17-1.3-.23-2-.19-2.07-.31-4.15-.31-6.26,0,0,0,0,0-.06A67.84,67.84,0,0,1,200.41,82.85Zm-72.78,3.34a54.71,54.71,0,0,1,48.71-8.61,80.49,80.49,0,0,0-13.71,45.12v.75c0,2.1.14,4.31.36,6.73.06.61.13,1.22.21,1.82l.06.49c.21,1.74.47,3.45.79,5.15.17,1,.32,1.7.48,2.44.4,1.83.87,3.63,1.39,5.41.19.74.32,1.21.47,1.67.67,2.13,1.44,4.24,2.36,6.46.28.67.57,1.32.87,2l.25.54c.59,1.3,1.2,2.58,1.85,3.84.49.94,1,1.89,1.53,2.83.63,1.1,1.28,2.15,1.94,3.2l.35.56c.48.76,1,1.53,1.48,2.27.69,1,1.42,2,2.16,2.91l.27.35c1.24,1.62,2.58,3.23,4,4.8l.3.33,1.14,1.25.22.23c.09.1.2.2.3.3-.27.13-.52.28-.78.41l-.7.34a55.64,55.64,0,0,1-9,3.25c-1.33.37-2.64.79-4,1.05-.34.07-.7.1-1,.16-1.34.23-2.68.46-4,.59-1.7.17-3.43.26-5.18.26h-.32c-1.76,0-3.49-.09-5.21-.26-1.36-.13-2.69-.36-4-.59-.35-.06-.7-.09-1.05-.16-1.65-.32-3.28-.72-4.87-1.19h0a54.79,54.79,0,0,1-8.15-3.11l-.71-.34c-1.09-.54-2.16-1.1-3.21-1.7l-.21-.13a54.84,54.84,0,0,1-9-6.56l-1-.91c-.73-.69-1.45-1.39-2.14-2.12-.38-.4-.74-.81-1.11-1.22-.94-1.05-1.84-2.13-2.7-3.25-.55-.72-1.12-1.44-1.64-2.19s-.83-1.29-1.24-1.93-.89-1.42-1.3-2.15-.71-1.28-1-1.93c-.44-.84-.85-1.71-1.24-2.58-.26-.57-.53-1.12-.76-1.7-.59-1.42-1.13-2.87-1.6-4.35-.11-.37-.2-.76-.31-1.13-.35-1.21-.67-2.42-.94-3.66-.12-.54-.22-1.1-.32-1.65-.22-1.14-.39-2.3-.53-3.47-.06-.52-.14-1-.19-1.57-.15-1.65-.25-3.32-.25-5v0A54.78,54.78,0,0,1,127.63,86.19Zm24.58,289a23.56,23.56,0,0,1-47.12,0V299.92a17.21,17.21,0,0,1-7.92,2,17.58,17.58,0,0,1-17.53-17.53L84.5,234.8c0-.48.1-.94.14-1.42,1.26-24.48,13.86-44.82,36.94-50.51a65.21,65.21,0,0,0,37.06,12.8c-12.88,13.53-20.82,32.54-22,54.87-.09.63-.16,1.26-.19,1.91l-6,61.48-.06.62v.62a34.52,34.52,0,0,0,21.88,32Zm195.47-42.26A21.69,21.69,0,0,1,335,337.05a20.33,20.33,0,0,1-3.77-.39,22.5,22.5,0,0,1-6.12-2.1h0v93.88a29.48,29.48,0,0,1-32.22,29.27c-15.38-1.45-26.58-15.41-26.58-30.85V344.44h0s0-.09,0-.14a10.27,10.27,0,1,0-20.54,0,.59.59,0,0,0,0,.14h0v84a29.48,29.48,0,0,1-32.22,29.27c-15.37-1.45-26.58-15.4-26.58-30.85v-92.3a22.5,22.5,0,0,1-6.12,2.1,20.33,20.33,0,0,1-3.77.39,21.69,21.69,0,0,1-12.71-4.16h0a21.86,21.86,0,0,1-9.16-17.72l6.05-61.87c0-.61.13-1.18.18-1.77.1-1.91.26-3.8.46-5.67,2.3-20.53,11.25-38.22,26.51-48.82a57.16,57.16,0,0,1,19-8.52.24.24,0,0,1,.2,0,81.7,81.7,0,0,0,31.79,14.22A78.2,78.2,0,0,0,273,202.7a81.91,81.91,0,0,0,31.45-14.15.27.27,0,0,1,.2,0c29.86,7.41,46.17,34.46,46.17,66.55,0,.1,0,.2,0,.31s0,.09,0,.15l6,59.65A21.86,21.86,0,0,1,347.68,332.89Zm67.15-31a17.24,17.24,0,0,1-7.92-2v75.23a23.56,23.56,0,0,1-47.12,0v-28a34.53,34.53,0,0,0,21.89-32v-.64l-.07-.64-6-59v-.34h0c-.12-23.8-8.24-44.41-22.11-58.86a65.13,65.13,0,0,0,36.91-12.79c24,5.9,37.09,27.6,37.09,53.35,0,.08,0,.16,0,.24s0,.08,0,.12l4.85,47.8A17.58,17.58,0,0,1,414.83,301.91Z"/></svg>