<svg xmlns="http://www.w3.org/2000/svg" viewBox="0 0 374.9 512"><path fill="rgba(114,147,35,0.6)" d="M369.56,234.63s0-.09,0-.14,0-.18,0-.27c0-28.33-14.42-52.21-40.82-58.71a71.8,71.8,0,0,1-40.63,14.08c15.27,15.9,24.2,38.59,24.33,64.78h0v.38L319,319.71l.07.71v.71A38,38,0,0,1,295,356.37v30.78a25.93,25.93,0,1,0,51.86,0v-82.8a19,19,0,0,0,8.72,2.19,19.36,19.36,0,0,0,19.3-19.3Z"/><path fill="rgba(114,147,35,0.6)" d="M55.79,321.13v-.69l.07-.68,6.62-67.67c0-.71.11-1.4.21-2.09C64,225.42,72.77,204.49,87,189.6a71.82,71.82,0,0,1-40.79-14.09c-25.4,6.26-39.27,28.64-40.66,55.6,0,.52-.16,1-.16,1.56L0,287.24a19.36,19.36,0,0,0,19.3,19.3A19.06,19.06,0,0,0,28,304.35v82.8a25.93,25.93,0,1,0,51.86,0V356.37A38,38,0,0,1,55.79,321.13Z"/><path fill="rgba(114,147,35,0.6)" d="M112,109.34c0,2.33.14,4.62.35,6.89.07.73.17,1.44.25,2.16.2,1.6.44,3.19.73,4.76.14.76.28,1.52.45,2.27q.55,2.55,1.29,5c.15.51.27,1,.43,1.55.64,2,1.38,4,2.18,6,.33.79.7,1.56,1,2.33.54,1.2,1.11,2.39,1.71,3.55.46.9.94,1.77,1.43,2.64s1.18,2,1.8,3,1.1,1.79,1.7,2.65c.71,1,1.49,2,2.25,3q1.77,2.3,3.71,4.45c.5.57,1,1.13,1.52,1.68s1.35,1.35,2,2c.3.29.59.6.9.89s.92.84,1.38,1.26a75.57,75.57,0,0,0,12.36,9l.29.18c1.44.83,2.91,1.6,4.41,2.33l1,.47a73.6,73.6,0,0,0,11.19,4.28h0c2.19.64,4.42,1.19,6.69,1.63.48.1,1,.14,1.45.22,1.83.32,3.66.63,5.54.81a70.23,70.23,0,0,0,7.14.36h.44c2.4,0,4.78-.12,7.12-.36,1.88-.18,3.72-.49,5.56-.81.47-.08,1-.12,1.42-.22a74.57,74.57,0,0,0,17.91-5.91l1-.46c1.5-.74,3-1.51,4.43-2.34l.26-.17a74.84,74.84,0,0,0,12.38-9c.46-.41.92-.82,1.37-1.25s.6-.6.91-.89c.69-.67,1.38-1.33,2-2s1-1.11,1.51-1.67c1.29-1.43,2.51-2.9,3.69-4.42.77-1,1.56-2,2.28-3.06.6-.86,1.13-1.75,1.69-2.63s1.24-2,1.81-3c.49-.86,1-1.73,1.42-2.62.61-1.17,1.18-2.37,1.73-3.57.34-.77.71-1.53,1-2.31.81-2,1.55-4,2.2-6,.15-.49.26-1,.41-1.48q.74-2.52,1.31-5.1c.16-.74.3-1.48.43-2.22.3-1.59.54-3.2.74-4.82.08-.71.18-1.4.25-2.11.21-2.3.35-4.62.35-7A75.1,75.1,0,0,0,250,67.1c-.4-.59-.89-1.08-1.3-1.65a75.12,75.12,0,0,0-122.45,0A74.69,74.69,0,0,0,112,109.27Z"/><path fill="rgba(114,147,35,0.6)" d="M283.14,117.53c-.06.67-.14,1.33-.22,2l-.06.51c-.24,1.93-.53,3.84-.9,5.83-.16.85-.32,1.7-.5,2.52-.43,2-.95,4-1.63,6.33-.13.51-.27,1-.42,1.48-.74,2.35-1.59,4.68-2.6,7.12-.3.72-.62,1.43-.94,2.13l-.28.62c-.65,1.44-1.33,2.86-2,4.23-.55,1.05-1.11,2.09-1.7,3.13-.69,1.2-1.41,2.38-2.14,3.53l-.38.6c-.52.84-1.06,1.69-1.63,2.51-.79,1.14-1.63,2.24-2.47,3.33l-.23.3c-1.36,1.77-2.83,3.53-4.37,5.26l-.35.38c-.4.45-.8.89-1.21,1.32-.08.09-.15.18-.23.26l-.34.34c.28.14.56.3.85.44s.51.26.78.38a58.68,58.68,0,0,0,9,3.43h0c.45.13.92.21,1.37.33,1.32.36,2.64.71,4,1,.37.07.77.11,1.15.17,1.47.26,2.94.51,4.44.65,1.89.19,3.8.28,5.73.29h.35c1.93,0,3.83-.1,5.71-.29,1.51-.14,3-.39,4.45-.65.38-.07.77-.1,1.14-.17a59.84,59.84,0,0,0,14.35-4.74l.77-.37c1.2-.59,2.39-1.21,3.55-1.88l.21-.13a60.4,60.4,0,0,0,9.92-7.23l1.1-1c.81-.76,1.59-1.53,2.36-2.34.42-.43.81-.88,1.21-1.33,1-1.15,2-2.32,2.95-3.55.63-.8,1.26-1.61,1.84-2.45.47-.69.9-1.4,1.35-2.11s1-1.57,1.45-2.39.77-1.39,1.14-2.1c.49-.94.94-1.89,1.38-2.86.28-.62.57-1.22.83-1.85q1-2.35,1.76-4.81c.12-.39.21-.79.33-1.18.39-1.35.75-2.71,1.05-4.09.13-.59.24-1.18.35-1.78.23-1.27.43-2.56.59-3.87.06-.56.14-1.12.19-1.68.17-1.85.29-3.71.29-5.59a60.28,60.28,0,0,0-77.89-57.82,89,89,0,0,1,15,49.61C283.55,111.82,283.42,114.52,283.14,117.53Z"/><path fill="rgba(114,147,35,0.6)" d="M28.77,123.05c.06.58.14,1.16.21,1.73.15,1.29.34,2.56.58,3.82.11.61.22,1.21.36,1.81.29,1.36.64,2.7,1,4,.12.41.22.83.35,1.24.51,1.63,1.1,3.23,1.75,4.79.26.64.55,1.25.84,1.87.43,1,.88,1.91,1.37,2.85.37.71.75,1.42,1.14,2.11s1,1.59,1.44,2.37.89,1.43,1.36,2.12,1.2,1.62,1.81,2.42q1.43,1.84,3,3.57c.41.45.81.91,1.22,1.35.77.8,1.55,1.57,2.36,2.33.36.34.73.67,1.11,1a60.53,60.53,0,0,0,9.89,7.22l.24.14c1.15.67,2.33,1.28,3.53,1.87l.79.38a58.68,58.68,0,0,0,9,3.43h0c1.76.51,3.54.95,5.36,1.31.38.07.78.11,1.16.17,1.47.26,2.94.51,4.44.65,1.88.19,3.79.28,5.73.29h.35c1.93,0,3.83-.1,5.71-.29,1.5-.14,3-.39,4.45-.65.38-.07.77-.1,1.14-.17,1.51-.29,2.95-.76,4.42-1.16a61.1,61.1,0,0,0,9.93-3.58l.77-.37c.29-.15.56-.31.85-.45-.1-.12-.22-.22-.33-.33l-.23-.26c-.43-.45-.85-.91-1.26-1.37l-.33-.37c-1.54-1.72-3-3.5-4.38-5.27l-.3-.39c-.81-1-1.61-2.1-2.38-3.2-.56-.82-1.09-1.66-1.62-2.51l-.39-.61c-.73-1.16-1.44-2.32-2.13-3.52-.59-1-1.15-2.08-1.69-3.12-.72-1.38-1.39-2.79-2-4.23l-.27-.59c-.33-.71-.66-1.43-1-2.17-1-2.44-1.86-4.76-2.6-7.11-.16-.51-.3-1-.52-1.83q-.85-2.94-1.52-6c-.18-.82-.34-1.64-.54-2.69q-.51-2.79-.86-5.66l-.07-.55c-.08-.66-.16-1.32-.23-2-.24-2.66-.37-5.09-.4-7.41v-.83a88.51,88.51,0,0,1,15.1-49.65,60.55,60.55,0,0,0-77.95,57.86s0,0,0,0C28.5,119.4,28.61,121.23,28.77,123.05Z"/><path fill="rgba(114,147,35,0.6)" d="M298.44,321.13l-6.66-65.66c0-.06,0-.11,0-.17s0-.22,0-.33c0-35.32-17.95-65.1-50.82-73.25a.28.28,0,0,0-.22,0,90.09,90.09,0,0,1-34.61,15.58,86.48,86.48,0,0,1-37,.08,90.07,90.07,0,0,1-35-15.66.28.28,0,0,0-.22,0A63.29,63.29,0,0,0,113,191.1c-16.79,11.67-26.64,31.15-29.18,53.74-.23,2-.39,4.13-.5,6.24-.06.65-.2,1.28-.2,1.95l-6.67,68.1a24.08,24.08,0,0,0,10.09,19.5h0a23.87,23.87,0,0,0,14,4.58,22.63,22.63,0,0,0,4.15-.43,25.21,25.21,0,0,0,6.74-2.3V444.06c0,17,12.33,32.36,29.25,34a32.44,32.44,0,0,0,35.46-32.21V353.35h0c0-.05,0-.1,0-.16a11.3,11.3,0,0,1,22.6,0c0,.06,0,.11,0,.16h0v90.71c0,17,12.34,32.36,29.26,34a32.44,32.44,0,0,0,35.46-32.21V342.48h0a25.21,25.21,0,0,0,6.74,2.3,22.61,22.61,0,0,0,4.14.43,24.29,24.29,0,0,0,24.08-24.08Z"/></svg>